<svg width="64" height="41" viewBox="0 0 64 41" fill="none" xmlns="http://www.w3.org/2000/svg">
<path d="M59.4872 0.404053H4.51282C2.02445 0.404053 0 2.38341 0 4.81635V36.1838C0 38.6167 2.02445 40.5961 4.51282 40.5961H59.4872C61.9754 40.5961 64 38.6167 64 36.1838V4.81635C64 2.38341 61.9754 0.404053 59.4872 0.404053Z" fill="white"/>
<path d="M13.9326 13.9256C13.2479 13.4549 12.3544 13.219 11.2521 13.219H6.98466C6.64674 13.219 6.46005 13.388 6.42459 13.7256L4.69099 24.6077C4.67297 24.7146 4.69971 24.8123 4.77096 24.9012C4.84181 24.9902 4.93091 25.0345 5.03763 25.0345H7.06464C7.42016 25.0345 7.61557 24.8659 7.65144 24.5278L8.13146 21.5941C8.14898 21.4519 8.21151 21.3363 8.31823 21.2473C8.42486 21.1584 8.55823 21.1003 8.71826 21.0737C8.8783 21.0472 9.0292 21.0339 9.1717 21.0339C9.3138 21.0339 9.48263 21.0429 9.67853 21.0606C9.87395 21.0784 9.99851 21.087 10.0519 21.087C11.581 21.087 12.7812 20.6562 13.6526 19.7936C14.5236 18.9313 14.9596 17.7356 14.9596 16.2062C14.9596 15.1572 14.617 14.3971 13.9326 13.9256ZM11.7323 17.1931C11.6431 17.8156 11.4122 18.2243 11.0388 18.42C10.6654 18.6159 10.132 18.7132 9.43861 18.7132L8.5584 18.74L9.01191 15.886C9.04729 15.6906 9.16281 15.5928 9.35855 15.5928H9.86547C10.5764 15.5928 11.0923 15.6953 11.4124 15.8994C11.7323 16.104 11.839 16.5355 11.7323 17.1931Z" fill="#003087"/>
<path d="M58.9677 13.2191H56.9941C56.7981 13.2191 56.6826 13.3169 56.6474 13.5125L54.9136 24.6078L54.8869 24.6611C54.8869 24.7505 54.9225 24.8345 54.9938 24.9146C55.0645 24.9945 55.1538 25.0345 55.2604 25.0345H57.0209C57.3582 25.0345 57.545 24.8659 57.581 24.5279L59.3146 13.619V13.5925C59.3145 13.3436 59.1986 13.2191 58.9677 13.2191Z" fill="#009CDE"/>
<path d="M35.1232 17.513C35.1232 17.4243 35.0874 17.3397 35.0167 17.2598C34.9454 17.1798 34.8653 17.1396 34.7766 17.1396H32.7229C32.5269 17.1396 32.367 17.229 32.2428 17.4063L29.4156 21.5673L28.2422 17.5665C28.1529 17.2822 27.9574 17.1396 27.6554 17.1396H25.6548C25.5657 17.1396 25.4856 17.1798 25.4149 17.2598C25.3436 17.3397 25.3082 17.4244 25.3082 17.513C25.3082 17.5489 25.4816 18.0732 25.8283 19.0867C26.1749 20.1003 26.5484 21.1939 26.9485 22.3676C27.3486 23.541 27.5573 24.1637 27.5752 24.2343C26.1171 26.226 25.3882 27.2929 25.3882 27.4349C25.3882 27.6662 25.5037 27.7817 25.7349 27.7817H27.7887C27.9842 27.7817 28.1442 27.693 28.2688 27.5151L35.0701 17.6997C35.1054 17.6643 35.1232 17.6024 35.1232 17.513Z" fill="#003087"/>
<path d="M54.2468 17.1397H52.2196C51.9705 17.1397 51.8198 17.4331 51.7665 18.0199C51.3037 17.309 50.4596 16.9529 49.2325 16.9529C47.9522 16.9529 46.8629 17.4331 45.9653 18.3932C45.0672 19.3535 44.6184 20.4828 44.6184 21.7806C44.6184 22.8299 44.925 23.6656 45.5384 24.2877C46.1519 24.9104 46.9742 25.2212 48.0058 25.2212C48.5213 25.2212 49.0458 25.1143 49.5792 24.9011C50.1127 24.6878 50.5302 24.4034 50.833 24.0477C50.833 24.0655 50.8149 24.1454 50.7796 24.2876C50.7437 24.4301 50.7262 24.537 50.7262 24.6076C50.7262 24.8925 50.8414 25.0343 51.073 25.0343H52.9135C53.2508 25.0343 53.4467 24.8657 53.4999 24.5277L54.5936 17.5664C54.6111 17.4597 54.5844 17.362 54.5135 17.273C54.4422 17.1842 54.3535 17.1397 54.2468 17.1397ZM50.7662 22.394C50.3128 22.8386 49.7661 23.0607 49.1259 23.0607C48.6101 23.0607 48.1926 22.9187 47.8723 22.634C47.5522 22.35 47.3922 21.9588 47.3922 21.4605C47.3922 20.803 47.6144 20.247 48.059 19.7936C48.5031 19.3401 49.0548 19.1134 49.7127 19.1134C50.2101 19.1134 50.6236 19.2602 50.9529 19.5535C51.2816 19.8469 51.4464 20.2516 51.4464 20.7672C51.4463 21.4073 51.2196 21.9497 50.7662 22.394Z" fill="#009CDE"/>
<path d="M23.9479 17.1397H21.9209C21.6716 17.1397 21.5208 17.4331 21.4674 18.0199C20.9873 17.309 20.1426 16.9529 18.9336 16.9529C17.6533 16.9529 16.5641 17.4331 15.6663 18.3932C14.7682 19.3535 14.3194 20.4828 14.3194 21.7806C14.3194 22.8299 14.6262 23.6656 15.2396 24.2877C15.8531 24.9104 16.6753 25.2212 17.7067 25.2212C18.2043 25.2212 18.7203 25.1143 19.2536 24.9011C19.787 24.6878 20.2138 24.4034 20.5339 24.0477C20.4625 24.261 20.4272 24.4478 20.4272 24.6076C20.4272 24.8925 20.5427 25.0343 20.7739 25.0343H22.6142C22.9518 25.0343 23.1476 24.8657 23.201 24.5277L24.2945 17.5664C24.312 17.4597 24.2854 17.362 24.2145 17.273C24.1433 17.1842 24.0546 17.1397 23.9479 17.1397ZM20.4673 22.4072C20.0138 22.8434 19.4578 23.0607 18.8004 23.0607C18.2844 23.0607 17.871 22.9187 17.5601 22.634C17.2487 22.35 17.0932 21.9588 17.0932 21.4605C17.0932 20.803 17.3154 20.247 17.7601 19.7936C18.2043 19.3401 18.7556 19.1134 19.4137 19.1134C19.9114 19.1134 20.3248 19.2602 20.654 19.5535C20.9827 19.8469 21.1474 20.2516 21.1474 20.7672C21.1474 21.4251 20.9207 21.9721 20.4673 22.4072Z" fill="#003087"/>
<path d="M44.2316 13.9258C43.5469 13.455 42.6536 13.2191 41.5511 13.2191H37.3104C36.9545 13.2191 36.7589 13.3881 36.7236 13.7257L34.9899 24.6077C34.9719 24.7146 34.9986 24.8124 35.0699 24.9012C35.1405 24.9903 35.2299 25.0345 35.3366 25.0345H37.5235C37.7369 25.0345 37.8791 24.9191 37.9503 24.6879L38.4305 21.5941C38.4481 21.452 38.5104 21.3364 38.6172 21.2473C38.7239 21.1585 38.8571 21.1003 39.0173 21.0737C39.1773 21.0473 39.3282 21.034 39.4707 21.034C39.6128 21.034 39.7817 21.043 39.9773 21.0606C40.1729 21.0784 40.2977 21.0871 40.3507 21.0871C41.88 21.0871 43.08 20.6562 43.9515 19.7936C44.8227 18.9313 45.2584 17.7356 45.2584 16.2062C45.2584 15.1573 44.916 14.3972 44.2316 13.9258ZM41.4977 18.3134C41.1065 18.58 40.5197 18.7133 39.7375 18.7133L38.8839 18.7401L39.3374 15.8862C39.3727 15.6908 39.4882 15.5929 39.6841 15.5929H40.164C40.5551 15.5929 40.8663 15.6107 41.0978 15.6462C41.3286 15.682 41.5511 15.7928 41.7645 15.9795C41.978 16.1663 42.0846 16.4375 42.0846 16.7931C42.0846 17.5399 41.8887 18.0465 41.4977 18.3134Z" fill="#009CDE"/>
</svg>
